<?xml version="1.0" encoding="UTF-8"?>
<svg width="16px" height="16px" viewBox="0 0 16 16" xmlns="http://www.w3.org/2000/svg" xmlns:xlink="http://www.w3.org/1999/xlink" version="1.1">
 <!-- Generated by Pixelmator Pro 1.2.4 -->
 <path id="path" d="M13.917 8.5 C13.917 4.91 11.249 2 7.958 2 4.668 2 2 4.91 2 8.5 2 12.09 4.668 15 7.958 15 11.249 15 13.917 12.09 13.917 8.5 Z" fill="#646465" fill-opacity="1" stroke="none"/>
 <path id="path-1" d="M9 5 C9 4.448 8.552 4 8 4 7.448 4 7 4.448 7 5 7 5.552 7.448 6 8 6 8.552 6 9 5.552 9 5 Z" fill="#c5c5c5" fill-opacity="1" stroke="none"/>
 <path id="path-2" d="M7 12 L9 12 9 7 7 7 Z" fill="#c5c5c5" fill-opacity="1" stroke="none"/>
</svg>
