<?xml version="1.0" encoding="UTF-8"?>
<svg width="16px" height="16px" viewBox="0 0 16 16" xmlns="http://www.w3.org/2000/svg" xmlns:xlink="http://www.w3.org/1999/xlink" version="1.1">
 <!-- Generated by Pixelmator Pro 1.2.4 -->
 <path id="path" d="M13.917 8.5 C13.917 4.91 11.249 2 7.958 2 4.668 2 2 4.91 2 8.5 2 12.09 4.668 15 7.958 15 11.249 15 13.917 12.09 13.917 8.5 Z" fill="#c5c5c5" fill-opacity="1" stroke="none"/>
 <defs>
  <path id="path-1" d="M9 5 C9 4.448 8.552 4 8 4 7.448 4 7 4.448 7 5 7 5.552 7.448 6 8 6 8.552 6 9 5.552 9 5 Z"/>
 </defs>
 <use id="ellipse" xlink:href="#path-1" fill="#646465" fill-opacity="1" stroke="none"/>
 <defs>
  <linearGradient id="linear-gradient" gradientUnits="userSpaceOnUse" x1="8.015" y1="3.949" x2="8.015" y2="6.018">
   <stop offset="0" stop-color="#fdbe2e" stop-opacity="1"/>
   <stop offset="1" stop-color="#ffcb02" stop-opacity="0"/>
  </linearGradient>
 </defs>
 <defs>
  <path id="stroke-path" d=""/>
 </defs>
 <use id="ellipse-1" stroke="url(#linear-gradient)" stroke-opacity="1" stroke-linecap="round" fill="none" stroke-width="12" xlink:href="#stroke-path"/>
 <defs>
  <path id="stroke-path-1" d=""/>
 </defs>
 <use id="ellipse-2" stroke="#646465" stroke-opacity="1" stroke-linecap="round" fill="none" stroke-width="6" xlink:href="#stroke-path-1"/>
 <path id="path-2" d="M7 12 L9 12 9 7 7 7 Z" fill="#646465" fill-opacity="1" stroke="none"/>
</svg>
