<svg height="32" viewBox="0 0 32 32" width="32" xmlns="http://www.w3.org/2000/svg"><path d="m21.537 17.724c-1.246 0-2.363.552-3.128 1.421l-1.96-1.388c.208-.572.327-1.188.327-1.832 0-.632-.115-1.237-.316-1.802l1.956-1.373c.765.865 1.879 1.414 3.121 1.414 2.3 0 4.172-1.871 4.172-4.171 0-2.301-1.872-4.172-4.172-4.172s-4.171 1.871-4.171 4.172c0 .411.062.808.174 1.184l-1.957 1.374c-.818-1.014-1.995-1.722-3.337-1.939v-2.359c1.89-.396 3.314-2.075 3.314-4.081 0-2.301-1.872-4.172-4.172-4.172s-4.171 1.871-4.171 4.172c0 1.979 1.387 3.637 3.238 4.062v2.39c-2.527.443-4.455 2.649-4.455 5.301 0 2.666 1.947 4.879 4.493 5.308v2.523c-1.871.411-3.276 2.08-3.276 4.072 0 2.301 1.871 4.172 4.171 4.172s4.172-1.871 4.172-4.172c0-1.992-1.406-3.661-3.276-4.072v-2.523c1.315-.222 2.47-.916 3.279-1.908l1.974 1.397c-.11.373-.171.766-.171 1.174 0 2.3 1.871 4.171 4.171 4.171s4.172-1.871 4.172-4.171c0-2.301-1.872-4.172-4.172-4.172zm0-9.754c1.116 0 2.023.907 2.023 2.023 0 1.115-.907 2.022-2.023 2.022-1.115 0-2.022-.907-2.022-2.022 0-1.116.907-2.023 2.022-2.023zm-12.171-3.798c0-1.115.907-2.023 2.022-2.023 1.116 0 2.023.908 2.023 2.023s-.907 2.022-2.023 2.022c-1.115 0-2.022-.907-2.022-2.022zm4.045 23.656c0 1.115-.907 2.023-2.023 2.023-1.115 0-2.022-.908-2.022-2.023s.907-2.022 2.022-2.022c1.116 0 2.023.907 2.023 2.022zm-2.023-9.082c-1.556 0-2.821-1.265-2.821-2.821 0-1.555 1.265-2.821 2.821-2.821 1.555 0 2.821 1.266 2.821 2.821 0 1.556-1.266 2.821-2.821 2.821zm10.149 5.172c-1.115 0-2.022-.907-2.022-2.022s.907-2.023 2.022-2.023c1.116 0 2.023.908 2.023 2.023s-.907 2.022-2.023 2.022z" fill="#c5c5c5"/></svg>